<svg width="92" height="10" viewBox="0 0 92 10" fill="none" xmlns="http://www.w3.org/2000/svg">
<path d="M4.94452 9.83912L8.43377 1.3357H6.49843L4.26419 7.21479L2.01887 1.3357H0.0493164L3.58486 9.83912H4.94352H4.94452ZM10.1316 2.86605C10.4164 2.86605 10.6539 2.76953 10.8461 2.57848C11.0374 2.38643 11.134 2.14813 11.134 1.86459C11.134 1.58104 11.0374 1.34475 10.8461 1.15672C10.6539 0.968692 10.4164 0.875183 10.1316 0.875183C9.84778 0.875183 9.60926 0.968692 9.41704 1.15672C9.22582 1.34475 9.13021 1.58104 9.13021 1.86459C9.13021 2.14813 9.22582 2.38643 9.41804 2.57848C9.60926 2.76953 9.84778 2.86605 10.1326 2.86605H10.1316ZM10.9377 9.83912V3.56789H9.31438V9.83912H10.9377ZM15.216 9.98793C16.007 9.98793 16.6552 9.68126 17.1624 9.06791V9.83912H18.7525V1.09337H17.1282V4.29284C16.6129 3.70161 15.9758 3.407 15.216 3.407C14.3334 3.407 13.5937 3.72072 12.9989 4.35016C12.4041 4.97959 12.1062 5.76186 12.1062 6.69697C12.1062 7.64112 12.4021 8.4254 12.9928 9.04981C13.5846 9.67523 14.3253 9.98793 15.216 9.98793ZM15.4696 8.5159C14.9553 8.5159 14.5326 8.34295 14.2015 7.99807C13.8795 7.64514 13.7185 7.21178 13.7185 6.69697C13.7185 6.19121 13.8815 5.76387 14.2086 5.41497C14.5347 5.06506 14.9553 4.89111 15.4696 4.89111C15.9829 4.89111 16.4026 5.06506 16.7246 5.41396C17.0467 5.76387 17.2077 6.19121 17.2077 6.69697C17.2077 7.21178 17.0467 7.64213 16.7246 7.99204C16.4026 8.34094 15.9839 8.51489 15.4696 8.51489V8.5159ZM23.3639 9.97687C24.4006 9.97687 25.3134 9.6893 26.1044 9.11416L25.4603 7.97495C25.1906 8.15895 24.8706 8.30977 24.4982 8.42943C24.1258 8.54807 23.7705 8.6074 23.4324 8.6074C22.4421 8.6074 21.8322 8.16297 21.6007 7.27311H26.3117C26.35 7.01973 26.3691 6.78143 26.3691 6.55922C26.3691 5.5849 26.0742 4.8157 25.4835 4.25262C24.8917 3.68854 24.1389 3.407 23.2251 3.407C22.2589 3.407 21.4709 3.7177 20.864 4.33909C20.2581 4.95948 19.9542 5.74678 19.9542 6.69697C19.9542 7.60995 20.2461 8.38519 20.8298 9.02166C21.4135 9.65813 22.2589 9.97687 23.3639 9.97687ZM24.792 6.06552H21.6017C21.7013 5.6583 21.8956 5.33755 22.1834 5.10427C22.4713 4.86999 22.8185 4.75235 23.2251 4.75235C23.6397 4.75235 23.9859 4.86999 24.2617 5.10427C24.5384 5.33755 24.7146 5.65729 24.792 6.06451V6.06552ZM30.5669 10C31.5501 10 32.3563 9.68126 32.9853 9.04479C33.6153 8.40831 33.9303 7.62604 33.9303 6.69697C33.9303 5.77695 33.6153 4.99668 32.9853 4.35619C32.3563 3.71569 31.5501 3.39494 30.5669 3.39494C29.5836 3.39494 28.7775 3.71569 28.1484 4.35619C27.5184 4.99668 27.2034 5.77695 27.2034 6.69697C27.2034 7.62604 27.5184 8.40831 28.1484 9.04479C28.7775 9.68126 29.5836 10 30.5669 10ZM30.5669 8.49177C30.0757 8.49177 29.6611 8.31983 29.3229 7.97495C28.9928 7.62202 28.8278 7.19569 28.8278 6.69797C28.8278 6.19925 28.9948 5.77694 29.329 5.43105C29.6631 5.08617 30.0757 4.91423 30.5669 4.91423C31.058 4.91423 31.4706 5.08617 31.8048 5.43206C32.1389 5.77694 32.306 6.19925 32.306 6.69697C32.306 7.19569 32.1389 7.62001 31.8048 7.96891C31.4706 8.31782 31.058 8.49177 30.5669 8.49177ZM40.7236 9.97687C41.6525 9.97687 42.4043 9.73556 42.981 9.25192C43.5567 8.76928 43.8445 8.14688 43.8445 7.38774C43.8445 6.44459 43.3614 5.73873 42.3933 5.27018C42.1718 5.16359 41.8277 5.01177 41.3627 4.8157C40.8987 4.62063 40.6159 4.49997 40.5163 4.45372C40.0554 4.22346 39.8249 3.94394 39.8249 3.61414C39.8249 3.36779 39.9235 3.17071 40.1188 3.0209C40.315 2.87108 40.5817 2.79667 40.9199 2.79667C41.2339 2.79667 41.564 2.86605 41.9102 3.0038C42.2554 3.14156 42.5472 3.33763 42.7858 3.59101L43.6946 2.34823C42.9347 1.58104 42.0018 1.19694 40.8967 1.19694C40.0443 1.19694 39.3468 1.43323 38.8064 1.9048C38.2649 2.37738 37.9942 2.96962 37.9942 3.68251C37.9942 4.58041 38.4431 5.28626 39.3418 5.80007C39.5723 5.93078 39.9074 6.08161 40.3492 6.25455C40.791 6.42749 41.0688 6.54011 41.1846 6.5934C41.6978 6.83975 41.9555 7.13436 41.9555 7.48024C41.9555 7.74871 41.8407 7.9669 41.6103 8.13582C41.3798 8.30475 41.0879 8.38921 40.7347 8.38921C40.2979 8.38921 39.8812 8.28765 39.4857 8.08354C39.0902 7.88043 38.7541 7.58682 38.4773 7.20373L37.4991 8.38921C37.8513 8.90201 38.3122 9.29616 38.8809 9.56864C39.4495 9.84013 40.0634 9.97687 40.7236 9.97687ZM48.0765 10C49.0598 10 49.8659 9.68126 50.4949 9.04479C51.1249 8.40831 51.4399 7.62604 51.4399 6.69697C51.4399 5.77695 51.1249 4.99668 50.4949 4.35619C49.8659 3.71569 49.0598 3.39494 48.0765 3.39494C47.0942 3.39494 46.2881 3.71569 45.6581 4.35619C45.0281 4.99668 44.7141 5.77695 44.7141 6.69697C44.7141 7.62604 45.0281 8.40831 45.6581 9.04479C46.2881 9.68126 47.0942 10 48.0765 10ZM48.0765 8.49177C47.5854 8.49177 47.1707 8.31983 46.8326 7.97495C46.5025 7.62202 46.3374 7.19569 46.3374 6.69797C46.3374 6.19925 46.5045 5.77694 46.8386 5.43105C47.1727 5.08617 47.5854 4.91423 48.0765 4.91423C48.5676 4.91423 48.9802 5.08617 49.3144 5.43206C49.6485 5.77694 49.8156 6.19925 49.8156 6.69697C49.8156 7.19569 49.6485 7.62001 49.3144 7.96891C48.9802 8.31782 48.5676 8.49177 48.0765 8.49177ZM54.2549 9.83912V1.09337H52.6305V9.83912H54.2549ZM58.5674 9.98793C59.4661 9.98793 60.1706 9.7426 60.6808 9.25192C61.1911 8.76124 61.4457 8.07449 61.4457 7.19267V3.56789H59.8224V7.19267C59.8224 7.59085 59.7117 7.90959 59.4882 8.14789C59.2668 8.38518 58.9589 8.50383 58.5674 8.50383C58.1749 8.50383 57.8689 8.38518 57.6455 8.14688C57.4241 7.90959 57.3124 7.59085 57.3124 7.19167V3.56789H55.688V7.19267C55.688 8.07449 55.9457 8.76124 56.4599 9.25192C56.9732 9.7426 57.6767 9.98793 58.5674 9.98793ZM65.575 9.98793C66.2966 9.98793 66.9146 9.816 67.4289 9.47011L66.9458 8.19314C66.5613 8.40831 66.2121 8.51489 65.8971 8.51489C65.3063 8.51489 65.0104 8.14688 65.0104 7.41086V4.92529H67.0837V3.56789H65.0104V1.34575H63.3982V3.56688H62.3616V4.92429H63.3861V7.51343C63.3861 8.32687 63.5713 8.94122 63.9396 9.36051C64.308 9.77779 64.8534 9.98693 65.575 9.98693V9.98793ZM69.0925 2.86605C69.3763 2.86605 69.6148 2.76953 69.807 2.57848C69.9982 2.38643 70.0949 2.14813 70.0949 1.86459C70.0949 1.58104 69.9982 1.34475 69.807 1.15672C69.6148 0.968692 69.3763 0.875183 69.0925 0.875183C68.8087 0.875183 68.5701 0.968692 68.3779 1.15672C68.1867 1.34475 68.0911 1.58104 68.0911 1.86459C68.0911 2.14813 68.1867 2.38643 68.3789 2.57848C68.5701 2.76953 68.8087 2.86605 69.0935 2.86605H69.0925ZM69.8986 9.83912V3.56789H68.2763V9.83912H69.8996H69.8986ZM74.4305 10C75.4128 10 76.2189 9.68126 76.8489 9.04479C77.4779 8.40831 77.7929 7.62604 77.7929 6.69697C77.7929 5.77695 77.4779 4.99668 76.8489 4.35619C76.2189 3.71569 75.4128 3.39494 74.4305 3.39494C73.4472 3.39494 72.6411 3.71569 72.0111 4.35619C71.3821 4.99668 71.0671 5.77695 71.0671 6.69697C71.0671 7.62604 71.3821 8.40831 72.0111 9.04479C72.6411 9.68126 73.4472 10 74.4305 10ZM74.4305 8.49177C73.9384 8.49177 73.5247 8.31983 73.1866 7.97495C72.8565 7.62202 72.6914 7.19569 72.6914 6.69797C72.6914 6.19925 72.8585 5.77694 73.1916 5.43105C73.5257 5.08617 73.9384 4.91423 74.4295 4.91423C74.9216 4.91423 75.3343 5.08617 75.6674 5.43206C76.0025 5.77694 76.1696 6.19925 76.1696 6.69697C76.1696 7.19569 76.0025 7.62001 75.6684 7.96891C75.3343 8.31782 74.9216 8.49177 74.4305 8.49177ZM80.6079 9.83912V6.47877C80.6079 6.01122 80.7407 5.62914 81.0054 5.33352C81.2701 5.03891 81.6183 4.89111 82.0481 4.89111C82.4476 4.89111 82.7676 5.02484 83.0092 5.2933C83.2507 5.56177 83.3715 5.94587 83.3715 6.44459V9.83912H84.9958V6.0072C84.9958 5.17063 84.7583 4.52612 84.2823 4.07364C83.8063 3.62117 83.2266 3.39494 82.5432 3.39494C82.0984 3.39494 81.7008 3.49247 81.3516 3.68854C81.0014 3.88461 80.7427 4.13498 80.5737 4.44266V3.56789H78.9835V9.83912H80.6079ZM88.5374 10C89.2892 10 89.8941 9.80996 90.351 9.42989C90.8079 9.05082 91.0364 8.56919 91.0364 7.986C91.0364 7.29624 90.6841 6.76635 89.9766 6.39733C89.8005 6.30684 89.2973 6.10272 88.468 5.788C88.0996 5.66533 87.9145 5.47429 87.9145 5.21286C87.9145 5.06707 87.9809 4.94239 88.1107 4.83882C88.2415 4.73526 88.4146 4.68398 88.629 4.68398C89.1524 4.68398 89.6314 4.89111 90.0682 5.30537L90.8753 4.25765C90.2997 3.65938 89.567 3.36075 88.6753 3.36075C87.9688 3.36075 87.4012 3.53671 86.9704 3.88964C86.5407 4.24257 86.3263 4.69504 86.3263 5.24705C86.3263 5.98407 86.6866 6.52402 87.4082 6.86991C87.5471 6.93929 87.8158 7.04788 88.2144 7.1977C88.6139 7.34752 88.8635 7.44505 88.9631 7.4913C89.263 7.62905 89.412 7.81004 89.412 8.03226C89.412 8.20822 89.3295 8.35402 89.1644 8.46965C88.9994 8.58427 88.7941 8.64158 88.5485 8.64158C88.2335 8.64158 87.9215 8.56315 87.6105 8.4063C87.2985 8.24844 87.0318 8.03628 86.8094 7.76781L85.9459 8.7914C86.583 9.5968 87.4465 10 88.5374 10Z" fill="black"/>
</svg>
